<svg width="175" height="39" viewBox="0 0 175 39" fill="none" xmlns="http://www.w3.org/2000/svg">
<mask id="mask0" style="mask-type:alpha" maskUnits="userSpaceOnUse" x="0" y="0" width="175" height="39">
<path d="M174.41 0H0V39H174.41V0Z" fill="white"/>
</mask>
<g mask="url(#mask0)">
<path fill-rule="evenodd" clip-rule="evenodd" d="M62.9814 19.3789C62.9814 30.5217 71.5808 39 83.087 39C87.6895 39 92.5342 37.1832 96.5311 34.0342L90.5963 28.0994C88.2951 29.5528 85.8727 30.4006 83.6926 30.4006C77.6367 30.4006 73.0342 25.5559 73.0342 19.2578C73.0342 12.9596 77.6367 8.23602 83.6926 8.23602C85.9939 8.23602 88.5373 9.20497 90.8386 10.9006L96.8945 4.84472C93.0187 1.69565 88.0529 0 83.4504 0C71.7019 0 62.9814 8.35714 62.9814 19.3789Z" fill="white"/>
<path fill-rule="evenodd" clip-rule="evenodd" d="M119.665 39C131.413 39 140.376 30.5217 140.376 19.3789C140.376 8.35714 131.534 0 119.665 0C112.034 0 105.373 3.3913 101.86 9.20497L105.373 12.7174C109.127 16.472 109.127 22.6491 105.373 26.4037L101.981 29.795C105.494 35.4876 112.155 39 119.665 39ZM119.786 8.23602C125.721 8.23602 130.444 13.2019 130.444 19.5C130.444 25.7981 125.721 30.8851 119.786 30.8851C113.851 30.8851 108.885 25.7981 108.885 19.5C108.885 13.0807 113.609 8.23602 119.786 8.23602Z" fill="white"/>
<path fill-rule="evenodd" clip-rule="evenodd" d="M164.842 21.1956C159.028 21.1956 155.273 24.708 155.273 30.1583C155.273 35.6086 159.028 39.121 164.842 39.121C170.534 39.121 174.41 35.4875 174.41 30.1583C174.41 24.708 170.534 21.1956 164.842 21.1956ZM164.842 34.6397C162.541 34.6397 160.966 32.8229 160.966 30.1583C160.966 27.4937 162.541 25.6769 164.842 25.6769C167.143 25.6769 168.718 27.4937 168.718 30.1583C168.718 32.8229 167.143 34.6397 164.842 34.6397Z" fill="white"/>
<path fill-rule="evenodd" clip-rule="evenodd" d="M7.02484 0.242188C3.14907 0.242188 0 3.39126 0 7.26703V38.5155H2.6646C6.54037 38.5155 9.68944 35.3664 9.68944 31.4906V0.242188H7.02484Z" fill="white"/>
<path fill-rule="evenodd" clip-rule="evenodd" d="M54.8666 0.242188C50.9909 0.242188 47.8418 3.39126 47.8418 7.26703V38.5155H50.5064C54.3822 38.5155 57.5312 35.3664 57.5312 31.4906V0.242188H54.8666Z" fill="white"/>
<path fill-rule="evenodd" clip-rule="evenodd" d="M26.5249 30.2795V0.242188H23.8603C19.9845 0.242188 16.8354 3.39126 16.8354 7.26703V38.5155H35.851C39.7268 38.5155 42.9969 35.3664 42.9969 31.3695V30.2795H26.5249Z" fill="white"/>
<path fill-rule="evenodd" clip-rule="evenodd" d="M101.497 16.2298L97.379 12.1118L93.261 16.2298C91.4442 18.0466 91.4442 20.9534 93.261 22.7702L97.379 26.8882L101.497 22.7702C103.314 20.9534 103.314 18.0466 101.497 16.2298Z" fill="#009BDF"/>
<path fill-rule="evenodd" clip-rule="evenodd" d="M152.124 16.2299V13.0808H148.975C147.643 13.0808 146.553 14.1709 146.553 15.5032V18.6522H149.702C151.034 18.6522 152.124 17.5622 152.124 16.2299Z" fill="white"/>
<path fill-rule="evenodd" clip-rule="evenodd" d="M143.162 36.3353V33.1863H140.013C138.68 33.1863 137.59 34.2763 137.59 35.6086V38.7577H140.739C142.072 38.7577 143.162 37.6676 143.162 36.3353Z" fill="white"/>
<path fill-rule="evenodd" clip-rule="evenodd" d="M150.186 21.3167C148.127 21.3167 146.432 23.0123 146.432 25.0713V38.7576H148.37C150.429 38.7576 152.124 37.062 152.124 35.003V21.3167H150.186Z" fill="white"/>
</g>
</svg>
